<svg width="35" height="41" viewBox="0 0 35 41" fill="none" xmlns="http://www.w3.org/2000/svg">
<path d="M2.05308 10.3258L18.8879 8.60254C19.5162 8.50565 19.9254 8.36173 19.8967 8.26846C19.868 8.17519 19.4393 8.11856 18.8913 8.11741C18.1247 8.13888 17.3592 8.1594 16.5949 8.17894C11.8888 8.3051 7.18031 8.43212 2.46944 8.55998C4.14811 6.43617 6.42335 5.47399 7.78866 5.02805C14.4361 2.85815 25.3698 4.48802 34.1218 9.5252C29.3627 10.7273 20.1908 12.54 9.25632 11.4526C6.79596 11.2071 4.38339 10.8297 2.05308 10.3258Z" fill="#009900"/>
<path d="M9.09103 9.61466C10.7786 9.38773 11.9198 9.04846 11.8631 8.80936C11.8063 8.57026 10.6364 8.40556 9.0994 8.37919C10.3793 6.95533 12.0076 6.30987 12.9923 6.00855C17.7164 4.56213 25.1024 5.70102 30.9244 9.07001C27.6847 9.8889 21.4376 11.1248 13.9963 10.3822C12.3207 10.2152 10.6778 9.9581 9.09103 9.61466Z" fill="#04AA04"/>
<path d="M32.1142 21.3258L15.2793 19.6025C14.6511 19.5057 14.2419 19.3617 14.2705 19.2685C14.2992 19.1752 14.7279 19.1186 15.2759 19.1174C16.0426 19.1389 16.808 19.1594 17.5724 19.1789C22.2785 19.3051 26.987 19.4321 31.6978 19.56C30.0192 17.4362 27.7439 16.474 26.3786 16.028C19.7311 13.8581 8.79748 15.488 0.0454421 20.5252C4.8046 21.7273 13.9765 23.54 24.9109 22.4526C27.3713 22.2071 29.7839 21.8297 32.1142 21.3258Z" fill="#009900"/>
<path d="M25.0762 20.6147C23.3887 20.3877 22.2475 20.0485 22.3042 19.8094C22.3609 19.5703 23.5309 19.4056 25.0679 19.3792C23.788 17.9553 22.1597 17.3099 21.175 17.0086C16.4509 15.5621 9.06489 16.701 3.24287 20.07C6.4826 20.8889 12.7297 22.1248 20.171 21.3822C21.8465 21.2152 23.4895 20.9581 25.0762 20.6147Z" fill="#04AA04"/>
<path d="M2.05308 32.3258L18.8879 30.6025C19.5162 30.5057 19.9254 30.3617 19.8967 30.2685C19.868 30.1752 19.4393 30.1186 18.8913 30.1174C18.1247 30.1389 17.3592 30.1594 16.5949 30.1789C11.8888 30.3051 7.18031 30.4321 2.46944 30.56C4.14811 28.4362 6.42335 27.474 7.78866 27.028C14.4361 24.8581 25.3698 26.488 34.1218 31.5252C29.3627 32.7273 20.1908 34.54 9.25632 33.4526C6.79596 33.2071 4.38339 32.8297 2.05308 32.3258Z" fill="#009900"/>
<path d="M9.09103 31.6147C10.7786 31.3877 11.9198 31.0485 11.8631 30.8094C11.8063 30.5703 10.6364 30.4056 9.0994 30.3792C10.3793 28.9553 12.0076 28.3099 12.9923 28.0086C17.7164 26.5621 25.1024 27.701 30.9244 31.07C27.6847 31.8889 21.4376 33.1248 13.9963 32.3822C12.3207 32.2152 10.6778 31.9581 9.09103 31.6147Z" fill="#04AA04"/>
</svg>
