<svg width="26" height="27" viewBox="0 0 26 27" fill="none" xmlns="http://www.w3.org/2000/svg">
<path d="M25.0805 4.48506C26.0897 3.45967 26.0897 1.79443 25.0805 0.769043C24.0714 -0.256348 22.4326 -0.256348 21.4235 0.769043L12.9227 9.41514L4.41387 0.777246C3.40475 -0.248145 1.76595 -0.248145 0.756836 0.777246C-0.252279 1.80264 -0.252279 3.46787 0.756836 4.49326L9.26569 13.1312L0.764909 21.7772C-0.244206 22.8026 -0.244206 24.4679 0.764909 25.4933C1.77402 26.5187 3.41283 26.5187 4.42194 25.4933L12.9227 16.8472L21.4316 25.4851C22.4407 26.5104 24.0795 26.5104 25.0886 25.4851C26.0977 24.4597 26.0977 22.7944 25.0886 21.769L16.5798 13.1312L25.0805 4.48506Z" fill="black"/>
</svg>
