<svg width="78" height="66" viewBox="0 0 78 66" fill="none" xmlns="http://www.w3.org/2000/svg">
<path d="M30.5474 34.0583L46.9428 19.1125C47.6116 18.6061 48.19 18.4092 48.3209 18.585C48.4519 18.7608 48.2102 19.3094 47.7737 19.8897L45.8328 22.2089L33.896 36.49C38.8597 38.1657 42.3143 37.3305 44.1726 36.6149C53.1879 33.1316 58.7611 18.3969 57.1616 1C51.3063 4.06476 41.2605 11.3548 34.384 24.6424C32.8367 27.6329 31.5518 30.7864 30.5474 34.0583Z" fill="#009900"/>
<path d="M47.6677 34.0583L31.2723 19.1125C30.6051 18.6061 30.033 18.4092 29.8958 18.585C29.7586 18.7608 30.0049 19.3094 30.443 19.8897C31.0884 20.6633 31.7348 21.4364 32.3823 22.2089L44.3222 36.4795C39.357 38.1552 35.9039 37.32 34.0457 36.6043C25.0288 33.1211 18.6855 18.3863 20.2849 0.989441C26.1403 4.0542 36.95 11.3442 43.8327 24.6319C45.3806 27.6254 46.6651 30.7826 47.6677 34.0583Z" fill="#009900"/>
<path d="M32.2778 34.7053C36.6429 30.7315 38.1223 32.8503 34.9483 36.6395C38.9096 37.9776 41.6705 37.3094 43.1468 36.7397C50.3413 33.9598 55.0945 22.6538 53.8193 8.78235C49.1425 11.2282 40.8302 16.5946 35.338 27.1955C34.104 29.5807 33.0791 32.0958 32.2778 34.7053Z" fill="#04AA04"/>
<path d="M45.9388 34.7053C41.5738 30.7315 40.0928 32.8503 43.2684 36.6395C39.3071 37.9776 36.5462 37.3094 35.0684 36.7397C27.8754 33.9598 23.1206 22.6538 24.3959 8.78235C29.0727 11.2282 37.3849 16.5946 42.8786 27.1955C44.1127 29.5807 45.1376 32.0958 45.9388 34.7053Z" fill="#04AA04"/>
<path d="M44.316 66C49.4075 58.193 46.4283 55.7771 41.4974 61.5251C39.4053 54.7784 40.1193 49.9641 40.7912 47.3723C44.065 34.7563 59.0682 27.5032 78 28.734C75.0053 36.9718 68.3112 49.9658 54.3041 60.1887C51.1507 62.4886 47.8054 64.435 44.316 66Z" fill="#009900"/>
<path d="M45.0378 64.8395C46.2335 62.6258 48.9351 57.4106 48.0715 56.5982C47.3185 55.8949 44.1991 58.7715 42.347 60.5949C41.8357 54.868 43.0922 50.8591 43.9933 48.7016C47.9421 39.2471 58.295 33.6328 70.1601 34.3765C68.7371 38.3144 66.9151 42.0534 64.7303 45.519C61.7293 50.2489 58.5055 53.1132 53.4919 57.713C50.0482 60.8745 47.0737 63.2676 45.0378 64.8395Z" fill="#04AA04"/>
<path d="M33.684 66C28.5956 58.193 31.5717 55.7771 36.5026 61.5198C38.5931 54.7731 37.8807 49.9588 37.2088 47.367C33.935 34.7511 18.9318 27.498 0 28.7288C2.99316 36.9666 9.68881 49.9606 23.6959 60.1835C26.8491 62.4852 30.1944 64.4333 33.684 66Z" fill="#009900"/>
<path d="M32.9607 64.8395C31.765 62.6258 29.0633 57.4106 29.927 56.5982C30.6799 55.8949 33.8009 58.7715 35.653 60.5949C36.1643 54.868 34.9062 50.8591 34.0067 48.7016C30.0579 39.2471 19.705 33.6328 7.8399 34.3765C9.26222 38.3148 11.0843 42.0539 13.2697 45.519C16.2707 50.2489 19.4945 53.1132 24.5081 57.713C27.9502 60.8745 30.934 63.2676 32.9607 64.8395Z" fill="#04AA04"/>
</svg>
