<svg xmlns="http://www.w3.org/2000/svg" viewBox="0 0 500.34 369.67"><defs><style>.cls-1{fill:#090;}.cls-2{fill:#04aa04;}</style></defs><title>logo2.0</title><g id="Layer_6" data-name="Layer 6"><path class="cls-1" d="M450.52,520.82l105.17-85c4.29-2.88,8-4,8.84-3s-.71,4.12-3.51,7.42l-12.45,13.19L472,534.65c31.84,9.53,54,4.78,65.92.71,57.83-19.81,93.58-103.61,83.32-202.55-37.56,17.43-102,58.89-146.11,134.46A302.79,302.79,0,0,0,450.52,520.82Z" transform="translate(-254.57 -332.81)"/><path class="cls-1" d="M560.34,520.82l-105.17-85c-4.28-2.88-7.95-4-8.83-3s.7,4.12,3.51,7.42q6.21,6.6,12.44,13.19l76.59,81.16c-31.85,9.53-54,4.78-65.92.71-57.84-19.81-98.53-103.61-88.27-202.55,37.56,17.43,106.9,58.89,151.05,134.46A302.08,302.08,0,0,1,560.34,520.82Z" transform="translate(-254.57 -332.81)"/><path class="cls-2" d="M461.62,524.5c28-22.6,37.49-10.55,17.13,11,25.41,7.61,43.12,3.81,52.59.57,46.15-15.81,76.64-80.11,68.46-159-30,13.91-83.32,44.43-118.55,104.72A241.61,241.61,0,0,0,461.62,524.5Z" transform="translate(-254.57 -332.81)"/><path class="cls-2" d="M549.25,524.5c-28-22.6-37.5-10.55-17.13,11-25.41,7.61-43.12,3.81-52.6.57-46.14-15.81-76.64-80.11-68.46-159,30,13.91,83.32,44.43,118.56,104.72A241.61,241.61,0,0,1,549.25,524.5Z" transform="translate(-254.57 -332.81)"/></g><g id="Layer_3" data-name="Layer 3"><path class="cls-1" d="M538.84,702.48c32.66-44.4,13.55-58.14-18.08-25.45-13.42-38.37-8.84-65.75-4.53-80.49,21-71.75,117.24-113,238.68-106-19.21,46.85-62.15,120.75-152,178.89A369.28,369.28,0,0,1,538.84,702.48Z" transform="translate(-254.57 -332.81)"/><path class="cls-2" d="M543.47,695.88c7.67-12.59,25-42.25,19.46-46.87-4.83-4-24.84,12.36-36.72,22.73-3.28-32.57,4.78-55.37,10.56-67.64,25.33-53.77,91.74-85.7,167.85-81.47A313.6,313.6,0,0,1,669.79,586c-19.25,26.9-39.93,43.19-72.09,69.35C575.61,673.33,556.53,686.94,543.47,695.88Z" transform="translate(-254.57 -332.81)"/><path class="cls-1" d="M470.64,702.48C438,658.08,457.09,644.34,488.72,677c13.41-38.37,8.84-65.75,4.53-80.49-21-71.75-117.24-113-238.68-106,19.2,46.85,62.15,120.75,152,178.89A369.28,369.28,0,0,0,470.64,702.48Z" transform="translate(-254.57 -332.81)"/><path class="cls-2" d="M466,695.88c-7.67-12.59-25-42.25-19.46-46.87,4.83-4,24.85,12.36,36.73,22.73,3.28-32.57-4.79-55.37-10.56-67.64-25.33-53.77-91.74-85.7-167.85-81.47A313.1,313.1,0,0,0,339.69,586c19.25,26.9,39.93,43.19,72.09,69.35C433.86,673.33,453,686.94,466,695.88Z" transform="translate(-254.57 -332.81)"/></g></svg>