<svg width="33" height="28" viewBox="0 0 33 28" fill="none" xmlns="http://www.w3.org/2000/svg">
<path d="M12.9239 13.9906L19.8604 7.66744C20.1434 7.4532 20.3881 7.36988 20.4435 7.44427C20.4989 7.51866 20.3966 7.75076 20.212 7.99625L19.3908 8.97746L14.3406 15.0195C16.4406 15.7284 17.9022 15.3751 18.6884 15.0723C22.5026 13.5986 24.8605 7.36467 24.1838 0.00445557C21.7065 1.30109 17.4564 4.38532 14.5471 10.007C13.8925 11.2722 13.3488 12.6064 12.9239 13.9906Z" fill="#04AA04"/>
<path d="M20.1671 13.9907L13.2306 7.66745C12.9483 7.4532 12.7063 7.36989 12.6482 7.44428C12.5902 7.51867 12.6944 7.75076 12.8797 7.99625C13.1528 8.32357 13.4263 8.65064 13.7002 8.97747L18.7517 15.015C16.651 15.724 15.1901 15.3706 14.4039 15.0678C10.5891 13.5942 7.90539 7.36021 8.58209 0C11.0594 1.29663 15.6327 4.38087 18.5446 10.0026C19.1995 11.2691 19.7429 12.6048 20.1671 13.9907Z" fill="#04AA04"/>
<path d="M13.656 14.2644C15.5028 12.5832 16.1287 13.4796 14.7858 15.0827C16.4618 15.6488 17.6298 15.3661 18.2544 15.1251C21.2982 13.949 23.3092 9.16565 22.7697 3.29697C20.7911 4.33174 17.2743 6.60214 14.9507 11.0872C14.4286 12.0963 13.995 13.1604 13.656 14.2644Z" fill="#80FF03"/>
<path d="M19.4357 14.2644C17.5889 12.5832 16.9623 13.4796 18.3059 15.0827C16.6299 15.6488 15.4619 15.3661 14.8366 15.1251C11.7934 13.949 9.78181 9.16565 10.3213 3.29697C12.3 4.33174 15.8167 6.60214 18.141 11.0872C18.6631 12.0963 19.0967 13.1604 19.4357 14.2644Z" fill="#80FF03"/>
<path d="M18.7491 27.5045C20.9032 24.2015 19.6428 23.1794 17.5566 25.6112C16.6715 22.7569 16.9736 20.72 17.2578 19.6235C18.6429 14.286 24.9904 11.2174 33 11.7381C31.733 15.2233 28.9009 20.7208 22.9748 25.0459C21.6407 26.0189 20.2254 26.8423 18.7491 27.5045Z" fill="#04AA04"/>
<path d="M19.0545 27.0135C19.5603 26.0769 20.7033 23.8705 20.3379 23.5268C20.0194 23.2293 18.6996 24.4463 17.9161 25.2177C17.6997 22.7948 18.2313 21.0987 18.6126 20.1859C20.2832 16.1859 24.6633 13.8107 29.6831 14.1253C29.0811 15.7914 28.3102 17.3733 27.3859 18.8395C26.1163 20.8406 24.7523 22.0524 22.6312 23.9985C21.1743 25.336 19.9158 26.3485 19.0545 27.0135Z" fill="#80FF03"/>
<path d="M14.2509 27.5045C12.0982 24.2015 13.3572 23.1794 15.4434 25.609C16.3279 22.7546 16.0264 20.7178 15.7422 19.6213C14.3571 14.2838 8.0096 11.2152 0 11.7359C1.26634 15.2211 4.09911 20.7186 10.0252 25.0436C11.3592 26.0174 12.7745 26.8416 14.2509 27.5045Z" fill="#04AA04"/>
<path d="M13.9449 27.0135C13.439 26.0769 12.296 23.8705 12.6614 23.5268C12.98 23.2292 14.3004 24.4463 15.0839 25.2177C15.3003 22.7948 14.768 21.0987 14.3875 20.1859C12.7168 16.1859 8.33673 13.8106 3.31689 14.1253C3.91864 15.7915 4.68952 17.3734 5.61411 18.8394C6.88374 20.8405 8.2477 22.0524 10.3688 23.9984C11.8251 25.336 13.0875 26.3484 13.9449 27.0135Z" fill="#80FF03"/>
</svg>
