<svg width="500" height="2356" viewBox="0 0 500 2356" fill="none" xmlns="http://www.w3.org/2000/svg">
<g opacity="0.25">
<path d="M-95.4112 575.105L244.448 230.769C255.788 216.836 259.845 205.075 255.302 202.464C250.759 199.853 237.963 205.282 224.542 214.587C206.716 228.373 188.88 242.108 171.031 255.791C61.3747 340.231 -48.3049 424.74 -158.008 509.319C-204.548 410.11 -188.664 339.335 -173.718 301.233C-100.891 115.766 233.107 -16.5036 654.255 1.66832C587.636 122.771 438.479 339.413 126.815 489.725C56.6528 523.519 -17.7772 552.115 -95.4112 575.105Z" fill="#9FC131"/>
<path d="M46.4367 431.328C78.3208 395.013 92.2137 364.281 80.9605 357.302C69.7073 350.323 34.3152 364.798 -4.34173 390.128C-31.8149 320.987 -18.6515 271.773 -7.01618 244.97C48.7637 116.354 276.294 28.2661 557.625 40.9571C512.23 123.41 410.534 270.998 198.008 373.198C150.16 396.217 99.3933 415.687 46.4367 431.328Z" fill="#DBF227"/>
<path d="M669.845 904.738L329.986 560.402C318.645 546.469 314.588 534.708 319.131 532.097C323.674 529.486 336.471 534.915 349.892 544.22C367.717 558.007 385.554 571.741 403.402 585.424C513.059 669.864 622.738 754.374 732.441 838.952C778.981 739.743 763.098 668.968 748.151 630.867C675.324 445.399 341.326 313.13 -79.8217 331.301C-13.2024 452.404 135.954 669.046 447.618 819.358C517.781 853.152 592.211 881.748 669.845 904.738Z" fill="#9FC131"/>
<path d="M527.997 760.962C496.112 724.646 482.22 693.914 493.473 686.935C504.726 679.956 540.118 694.431 578.775 719.761C606.248 650.62 593.085 601.407 581.449 574.603C525.67 445.987 298.139 357.899 16.8084 370.59C62.2034 453.043 163.899 600.631 376.425 702.831C424.273 725.85 475.04 745.32 527.997 760.962Z" fill="#DBF227"/>
</g>
<g opacity="0.25">
<path d="M-310.491 575.105L29.3678 919.441C40.708 933.373 44.7655 945.135 40.2225 947.745C35.6795 950.356 22.8828 944.928 9.46182 935.622C-8.36343 921.836 -26.2002 908.101 -44.0486 894.419C-153.705 809.978 -263.385 725.469 -373.087 640.891C-419.627 740.1 -403.744 810.874 -388.797 848.976C-315.97 1034.44 18.0275 1166.71 439.175 1148.54C372.556 1027.44 223.4 810.797 -88.2649 660.484C-158.427 626.69 -232.857 598.094 -310.491 575.105Z" fill="#9FC131"/>
<path d="M-168.643 718.881C-136.759 755.196 -122.866 785.929 -134.119 792.908C-145.373 799.886 -180.765 785.412 -219.422 760.081C-246.895 829.223 -233.731 878.436 -222.096 905.24C-166.316 1033.86 61.2144 1121.94 342.545 1109.25C297.15 1026.8 195.454 879.211 -17.0718 777.011C-64.9195 753.992 -115.686 734.522 -168.643 718.881Z" fill="#DBF227"/>
</g>
<g opacity="0.25">
<path d="M1003.37 957.339L663.515 1301.67C652.175 1315.61 648.117 1327.37 652.66 1329.98C657.203 1332.59 670 1327.16 683.421 1317.86C701.246 1304.07 719.083 1290.34 736.932 1276.65C846.588 1192.21 956.268 1107.7 1065.97 1023.12C1112.51 1122.33 1096.63 1193.11 1081.68 1231.21C1008.85 1416.68 674.855 1548.95 253.708 1530.78C320.327 1409.67 469.483 1193.03 781.148 1042.72C851.31 1008.92 925.74 980.328 1003.37 957.339Z" fill="#9FC131"/>
<path d="M861.526 1101.12C829.642 1137.43 815.749 1168.16 827.002 1175.14C838.255 1182.12 873.648 1167.65 912.304 1142.32C939.778 1211.46 926.614 1260.67 914.979 1287.47C859.199 1416.09 631.668 1504.18 350.338 1491.49C395.733 1409.03 497.429 1261.45 709.955 1159.25C757.802 1136.23 808.569 1116.76 861.526 1101.12Z" fill="#DBF227"/>
</g>
<g opacity="0.25">
<path d="M-92.2942 2215.09L247.565 1870.75C258.905 1856.82 262.962 1845.06 258.419 1842.45C253.876 1839.84 241.08 1845.27 227.659 1854.57C209.833 1868.36 191.997 1882.09 174.148 1895.77C64.4918 1980.21 -45.1878 2064.72 -154.891 2149.3C-201.43 2050.09 -185.547 1979.32 -170.6 1941.22C-97.7736 1755.75 236.224 1623.48 657.372 1641.65C590.753 1762.75 441.596 1979.4 129.932 2129.71C59.7698 2163.5 -14.6602 2192.1 -92.2942 2215.09Z" fill="#9FC131"/>
<path d="M49.5537 2071.31C81.4379 2035 95.3308 2004.26 84.0775 1997.29C72.8243 1990.31 37.4322 2004.78 -1.22468 2030.11C-28.6978 1960.97 -15.5344 1911.76 -3.89913 1884.95C51.8808 1756.34 279.411 1668.25 560.742 1680.94C515.347 1763.39 413.651 1910.98 201.125 2013.18C153.277 2036.2 102.51 2055.67 49.5537 2071.31Z" fill="#DBF227"/>
<path d="M672.962 2544.72L333.103 2200.39C321.762 2186.45 317.705 2174.69 322.248 2172.08C326.791 2169.47 339.588 2174.9 353.009 2184.2C370.834 2197.99 388.671 2211.72 406.519 2225.41C516.176 2309.85 625.855 2394.36 735.558 2478.94C782.098 2379.73 766.215 2308.95 751.268 2270.85C678.441 2085.38 344.443 1953.11 -76.7047 1971.29C-10.0854 2092.39 139.071 2309.03 450.735 2459.34C520.898 2493.14 595.328 2521.73 672.962 2544.72Z" fill="#9FC131"/>
<path d="M531.114 2400.95C499.229 2364.63 485.337 2333.9 496.59 2326.92C507.843 2319.94 543.235 2334.41 581.892 2359.74C609.365 2290.6 596.202 2241.39 584.566 2214.59C528.787 2085.97 301.256 1997.88 19.9254 2010.57C65.3204 2093.03 167.016 2240.61 379.542 2342.81C427.39 2365.83 478.157 2385.3 531.114 2400.95Z" fill="#DBF227"/>
</g>
<g opacity="0.25">
<path d="M-307.374 2215.09L32.485 2559.42C43.8251 2573.36 47.8826 2585.12 43.3396 2587.73C38.7966 2590.34 25.9999 2584.91 12.5789 2575.61C-5.24631 2561.82 -23.0831 2548.08 -40.9315 2534.4C-150.588 2449.96 -260.268 2365.45 -369.97 2280.87C-416.51 2380.08 -400.627 2450.86 -385.68 2488.96C-312.853 2674.43 21.1447 2806.7 442.292 2788.52C375.673 2667.42 226.517 2450.78 -85.1478 2300.47C-155.31 2266.67 -229.74 2238.08 -307.374 2215.09Z" fill="#9FC131"/>
</g>
</svg>
