<svg width="500" height="2339" viewBox="0 0 500 2339" fill="none" xmlns="http://www.w3.org/2000/svg">
<g opacity="0.25">
<path d="M-98.0779 575.105L241.781 230.769C253.121 216.836 257.179 205.075 252.636 202.464C248.093 199.853 235.296 205.282 221.875 214.587C204.05 228.373 186.213 242.108 168.365 255.791C58.7081 340.231 -50.9716 424.74 -160.674 509.319C-207.214 410.11 -191.331 339.335 -176.384 301.233C-103.557 115.766 230.441 -16.5036 651.588 1.66832C584.969 122.771 435.813 339.413 124.148 489.725C53.9861 523.519 -20.4439 552.115 -98.0779 575.105Z" fill="#009900"/>
<path d="M43.77 431.328C75.6542 395.013 89.547 364.281 78.2938 357.302C67.0406 350.323 31.6485 364.798 -7.00842 390.128C-34.4816 320.986 -21.3181 271.773 -9.68286 244.97C46.097 116.354 273.628 28.2661 554.958 40.9571C509.563 123.41 407.867 270.998 195.341 373.198C147.494 396.217 96.7267 415.687 43.77 431.328Z" fill="#04AA04"/>
<path d="M667.178 904.738L327.319 560.402C315.979 546.469 311.921 534.708 316.464 532.097C321.007 529.486 333.804 534.915 347.225 544.22C365.05 558.007 382.887 571.741 400.735 585.424C510.392 669.864 620.072 754.374 729.774 838.952C776.314 739.743 760.431 668.968 745.484 630.867C672.657 445.399 338.659 313.13 -82.4883 331.301C-15.8691 452.404 133.287 669.046 444.952 819.358C515.114 853.152 589.544 881.748 667.178 904.738Z" fill="#009900"/>
<path d="M525.33 760.962C493.446 724.646 479.553 693.914 490.806 686.935C502.059 679.956 537.451 694.431 576.108 719.761C603.582 650.62 590.418 601.407 578.783 574.603C523.003 445.987 295.472 357.899 14.1417 370.59C59.5367 453.043 161.232 600.631 373.759 702.831C421.606 725.85 472.373 745.32 525.33 760.962Z" fill="#04AA04"/>
</g>
<g opacity="0.25">
<path d="M-313.158 575.105L26.7011 919.441C38.0413 933.373 42.0988 945.135 37.5558 947.745C33.0128 950.356 20.2161 944.928 6.79514 935.622C-11.0301 921.836 -28.8669 908.101 -46.7153 894.419C-156.372 809.978 -266.051 725.469 -375.754 640.891C-422.294 740.1 -406.411 810.874 -391.464 848.976C-318.637 1034.44 15.3608 1166.71 436.508 1148.54C369.889 1027.44 220.733 810.797 -90.9316 660.484C-161.094 626.69 -235.524 598.094 -313.158 575.105Z" fill="#009900"/>
<path d="M-171.31 718.881C-139.426 755.196 -125.533 785.929 -136.786 792.908C-148.039 799.886 -183.431 785.412 -222.088 760.081C-249.561 829.223 -236.398 878.436 -224.763 905.24C-168.983 1033.86 58.5478 1121.94 339.878 1109.25C294.483 1026.8 192.788 879.211 -19.7385 777.011C-67.5862 753.992 -118.353 734.522 -171.31 718.881Z" fill="#04AA04"/>
</g>
<g opacity="0.25">
<path d="M1000.71 957.339L660.848 1301.67C649.508 1315.61 645.451 1327.37 649.994 1329.98C654.537 1332.59 667.333 1327.16 680.754 1317.86C698.58 1304.07 716.416 1290.34 734.265 1276.65C843.921 1192.21 953.601 1107.7 1063.3 1023.12C1109.84 1122.33 1093.96 1193.11 1079.01 1231.21C1006.19 1416.68 672.189 1548.95 251.041 1530.78C317.66 1409.67 466.817 1193.03 778.481 1042.72C848.643 1008.92 923.073 980.328 1000.71 957.339Z" fill="#009900"/>
<path d="M858.859 1101.12C826.975 1137.43 813.082 1168.16 824.336 1175.14C835.589 1182.12 870.981 1167.65 909.638 1142.32C937.111 1211.46 923.947 1260.67 912.312 1287.47C856.532 1416.09 629.002 1504.18 347.671 1491.49C393.066 1409.03 494.762 1261.45 707.288 1159.25C755.136 1136.23 805.903 1116.76 858.859 1101.12Z" fill="#04AA04"/>
</g>
<g opacity="0.25">
<path d="M-94.9609 2215.09L244.898 1870.75C256.238 1856.82 260.296 1845.06 255.753 1842.45C251.21 1839.84 238.413 1845.27 224.992 1854.57C207.167 1868.36 189.33 1882.09 171.482 1895.77C61.8251 1980.21 -47.8545 2064.72 -157.557 2149.3C-204.097 2050.09 -188.214 1979.32 -173.267 1941.22C-100.44 1755.75 233.558 1623.48 654.705 1641.65C588.086 1762.75 438.93 1979.4 127.265 2129.71C57.1032 2163.5 -17.3269 2192.1 -94.9609 2215.09Z" fill="#009900"/>
<path d="M46.8871 2071.31C78.7712 2035 92.6641 2004.26 81.4109 1997.29C70.1576 1990.31 34.7655 2004.78 -3.89137 2030.11C-31.3645 1960.97 -18.2011 1911.76 -6.56581 1884.95C49.2141 1756.34 276.745 1668.25 558.075 1680.94C512.68 1763.39 410.985 1910.98 198.458 2013.18C150.611 2036.2 99.8437 2055.67 46.8871 2071.31Z" fill="#04AA04"/>
<path d="M670.295 2544.72L330.436 2200.39C319.096 2186.45 315.038 2174.69 319.581 2172.08C324.124 2169.47 336.921 2174.9 350.342 2184.2C368.167 2197.99 386.004 2211.72 403.852 2225.41C513.509 2309.85 623.189 2394.36 732.891 2478.94C779.431 2379.73 763.548 2308.95 748.601 2270.85C675.774 2085.38 341.776 1953.11 -79.3713 1971.29C-12.7521 2092.39 136.404 2309.03 448.069 2459.34C518.231 2493.14 592.661 2521.73 670.295 2544.72Z" fill="#009900"/>
<path d="M528.447 2400.95C496.563 2364.63 482.67 2333.9 493.923 2326.92C505.176 2319.94 540.568 2334.41 579.225 2359.74C606.699 2290.6 593.535 2241.39 581.9 2214.59C526.12 2085.97 298.589 1997.88 17.2587 2010.57C62.6537 2093.03 164.349 2240.61 376.876 2342.81C424.723 2365.83 475.49 2385.3 528.447 2400.95Z" fill="#04AA04"/>
</g>
<g opacity="0.25">
<path d="M-310.041 2215.09L29.8183 2559.42C41.1584 2573.36 45.2159 2585.12 40.6729 2587.73C36.1299 2590.34 23.3332 2584.91 9.91227 2575.61C-7.91298 2561.82 -25.7498 2548.08 -43.5981 2534.4C-153.255 2449.96 -262.934 2365.45 -372.637 2280.87C-419.177 2380.08 -403.294 2450.86 -388.347 2488.96C-315.52 2674.43 18.478 2806.7 439.626 2788.52C373.006 2667.42 223.85 2450.78 -87.8145 2300.47C-157.977 2266.67 -232.407 2238.08 -310.041 2215.09Z" fill="#009900"/>
</g>
</svg>
